<?xml version="1.0" ?><svg id="Layer_1" style="enable-background:new 0 0 70 70;" version="1.1" viewBox="0 0 70 70" xml:space="preserve" xmlns="http://www.w3.org/2000/svg" xmlns:xlink="http://www.w3.org/1999/xlink"><style type="text/css">
	.st0{fill:#A5CEB9;}
	.st1{opacity:0.3;}
	.st2{fill:#FFFFFF;}
	.st3{fill:#F2F6F7;}
	.st4{opacity:0.2;}
	.st5{fill:#B2DDC9;}
	.st6{fill:#EAAAA8;}
	.st7{fill:#D8E3EA;}
	.st8{fill:#E29898;}
	.st9{fill:#FCD786;}
	.st10{fill:#FFE98A;}
	.st11{fill:#99C6DD;}
	.st12{fill:#B0D6EC;}
	.st13{opacity:0.4;}
	.st14{opacity:0.25;}
	.st15{opacity:0.2;fill:#FFFFFF;}
	.st16{opacity:4.000000e-02;}
</style><g><g><g><g><path class="st9" d="M55,41.3v0.1c-0.1,6.8-5.8,12.3-12.7,12.3H27.7c-6.9,0-12.6-5.5-12.7-12.3v-0.1c0-7.8,5.7-14.4,13.6-16.7      c-0.5-0.7-1.1-1.4-1.9-2.1c-2.6-2.3-2-6.8-1.9-7.3c0.1-0.8,0.8-1.4,1.7-1.4c0.6,0,1.1,0.3,1.4,0.6c0.6,0.4,2,1.4,6,0.9      c1.8-0.2,3.3-0.6,4.5-0.8c2.6-0.6,4.9-1.1,6.6,1.3c0.4,0.5,0.4,1.3,0.1,1.9c-1.7,2.6-3.1,5.5-3.5,7.1C49.4,27.1,55,33.6,55,41.3      z"/></g><g><path class="st10" d="M41.6,24.7c0.4-1.5,1.8-4.4,3.5-7.1c0.4-0.6,0.3-1.3-0.1-1.9c-1.7-2.4-4-1.9-6.6-1.3      c-1.2,0.3-2.7,0.6-4.5,0.8c-4,0.5-5.4-0.5-6-0.9c-0.3-0.2-0.8-0.6-1.4-0.6c-0.8,0-1.5,0.6-1.6,1.4c-0.1,0.5-0.7,5,1.9,7.3      c0.7,0.6,1.4,1.4,1.9,2.1c-7.9,2.4-13.6,9-13.6,16.7l0,0.1c0.1,6.8,5.8,12.3,12.7,12.3h14.6c6.9,0,12.6-5.5,12.7-12.3l0-0.1      C55,33.6,49.4,27.1,41.6,24.7z M28.1,18.2c0.8,0.3,1.8,0.5,3.1,0.5c0.2,0.3,0.4,0.5,0.6,0.8c0.5,0.8,1,1.7,1.4,2.5      c-0.3-0.9-0.7-1.8-1.1-2.7c-0.1-0.2-0.2-0.4-0.3-0.6c0.7,0,1.5,0,2.4-0.2c2-0.3,3.6-0.6,4.9-0.9c1.1-0.3,1.8-0.4,2.3-0.4      c-1.1,1.9-2.5,4.5-3,6.6c-0.4-0.1-0.7-0.1-1.1-0.1c0.1-0.4,0.1-0.9,0.2-1.3c0.2-1,0.5-2,0.9-2.9c-0.5,0.9-0.9,1.8-1.3,2.8      c-0.2,0.5-0.3,0.9-0.4,1.4c-0.6,0-1.1-0.1-1.7-0.1c-1,0-1.9,0.1-2.9,0.2c-0.6-0.9-1.7-2.5-3.2-3.8      C28.5,19.6,28.2,18.9,28.1,18.2z M51.7,41.4c0,5-4.2,9-9.4,9H27.7c-5.1,0-9.3-4.1-9.4-9l0-0.1C18.3,33.4,25.8,27,35,27      s16.7,6.4,16.7,14.3L51.7,41.4z"/><path class="st10" d="M46.1,32.2c-1.6-1.4-3.6-2.4-5.6-2.7c1.9,1,3.6,2,5.1,3.3c1.5,1.3,2.8,2.9,3.8,4.7      C48.9,35.5,47.7,33.6,46.1,32.2z"/><path class="st10" d="M35.7,37v-3.7c0.6,0.3,1,0.8,1.1,1.5l2.4-0.3c-0.2-0.9-0.5-1.7-1.1-2.2c-0.6-0.6-1.4-0.9-2.4-1v-0.9h-1.4      v0.9c-1.1,0.1-1.9,0.5-2.6,1.2c-0.6,0.7-1,1.6-1,2.6c0,1,0.3,1.9,0.9,2.6c0.6,0.7,1.5,1.2,2.7,1.6v3.9c-0.3-0.2-0.6-0.4-0.9-0.8      c-0.3-0.4-0.5-0.8-0.6-1.3l-2.4,0.3c0.2,1.2,0.6,2.2,1.3,2.9c0.7,0.7,1.6,1.1,2.6,1.2v1.7h1.4v-1.8c1.2-0.2,2.2-0.6,2.8-1.4      c0.7-0.8,1-1.7,1-2.9c0-1-0.3-1.8-0.8-2.5C38.2,37.9,37.2,37.4,35.7,37z M34.3,36.6c-0.4-0.2-0.7-0.4-0.9-0.7      c-0.2-0.3-0.3-0.6-0.3-0.9c0-0.4,0.1-0.7,0.3-1c0.2-0.3,0.5-0.5,0.9-0.6V36.6z M36.8,42.6c-0.3,0.3-0.7,0.6-1.1,0.7v-3.7      c0.6,0.2,1,0.4,1.2,0.7c0.2,0.3,0.4,0.7,0.4,1.1C37.3,41.9,37.1,42.3,36.8,42.6z"/></g></g><g class="st4"><g><path class="st2" d="M35.1,15.1c-0.4,0.1-0.8,0.1-1.2,0.2c-4,0.5-5.4-0.5-6-0.9c-0.3-0.2-0.8-0.6-1.4-0.6      c-0.8,0-1.5,0.6-1.7,1.4c-0.1,0.5-0.7,5,1.9,7.3c0.7,0.7,1.4,1.4,1.9,2.1c-7.9,2.4-13.6,9-13.6,16.7v0.1      c0.1,6.8,5.8,12.3,12.7,12.3h7.4V15.1z"/></g><g><path class="st2" d="M35.1,50.5h-7.4c-5.1,0-9.3-4.1-9.4-9l0-0.1C18.3,33.4,25.8,27,35,27c0,0,0.1,0,0.1,0v-3.3c0,0-0.1,0-0.1,0      c-1,0-1.9,0.1-2.9,0.2c-0.6-0.9-1.7-2.5-3.2-3.8c-0.4-0.4-0.7-1-0.8-1.8c0.8,0.3,1.8,0.5,3.1,0.5c0.2,0.3,0.4,0.5,0.6,0.8      c0.5,0.8,1,1.7,1.4,2.5c-0.3-0.9-0.7-1.8-1.1-2.7c-0.1-0.2-0.2-0.4-0.3-0.6c0.7,0,1.5,0,2.4-0.2c0.3,0,0.6-0.1,0.8-0.1v-3.4      c-0.4,0.1-0.8,0.1-1.2,0.2c-4,0.5-5.4-0.5-6-0.9c-0.3-0.2-0.8-0.6-1.4-0.6c-0.8,0-1.5,0.6-1.6,1.4c-0.1,0.5-0.7,5,1.9,7.3      c0.7,0.6,1.4,1.4,1.9,2.1c-7.9,2.4-13.6,9-13.6,16.7l0,0.1c0.1,6.8,5.8,12.3,12.7,12.3h7.4V50.5z"/><path class="st2" d="M35.1,47.1V30.4h-0.8v0.9c-1.1,0.1-1.9,0.5-2.6,1.2c-0.6,0.7-1,1.6-1,2.6c0,1,0.3,1.9,0.9,2.6      c0.6,0.7,1.5,1.2,2.7,1.6v3.9c-0.3-0.2-0.6-0.4-0.9-0.8c-0.3-0.4-0.5-0.8-0.6-1.3l-2.4,0.3c0.2,1.2,0.6,2.2,1.3,2.9      c0.7,0.7,1.6,1.1,2.6,1.2v1.7H35.1z M33.4,35.9c-0.2-0.3-0.3-0.6-0.3-0.9c0-0.4,0.1-0.7,0.3-1c0.2-0.3,0.5-0.5,0.9-0.6v3.2      C33.9,36.4,33.6,36.2,33.4,35.9z"/></g></g></g></g></svg>