<?xml version="1.0" ?><svg id="Layer_1" style="enable-background:new 0 0 70 70;" version="1.1" viewBox="0 0 70 70" xml:space="preserve" xmlns="http://www.w3.org/2000/svg" xmlns:xlink="http://www.w3.org/1999/xlink"><style type="text/css">
	.st0{fill:#A5CEB9;}
	.st1{opacity:0.3;}
	.st2{fill:#FFFFFF;}
	.st3{fill:#F2F6F7;}
	.st4{opacity:0.2;}
	.st5{fill:#B2DDC9;}
	.st6{fill:#EAAAA8;}
	.st7{fill:#D8E3EA;}
	.st8{fill:#E29898;}
	.st9{fill:#FCD786;}
	.st10{fill:#FFE98A;}
	.st11{fill:#99C6DD;}
	.st12{fill:#B0D6EC;}
	.st13{opacity:0.4;}
	.st14{opacity:0.25;}
	.st15{opacity:0.2;fill:#FFFFFF;}
	.st16{opacity:4.000000e-02;}
</style><g><g><g><path class="st0" d="M54.5,22.7v8.6c0,3.4-2.7,6.1-6.1,6.1h-1.8v12.6c0,3.1-2.5,5.6-5.6,5.6H29.1c-3.1,0-5.6-2.5-5.6-5.6V37.4     h-1.8c-3.4,0-6.1-2.7-6.1-6.1v-8.6c0-3.4,2.7-6.1,6.1-6.1h26.8C51.8,16.6,54.5,19.3,54.5,22.7z"/></g><g><path class="st5" d="M48.4,16.6H21.6c-3.4,0-6.1,2.7-6.1,6.1v8.6c0,3.4,2.7,6.1,6.1,6.1h1.8v12.6c0,3.1,2.5,5.6,5.6,5.6h11.9     c3.1,0,5.6-2.5,5.6-5.6V37.4h1.8c3.4,0,6.1-2.7,6.1-6.1v-8.6C54.5,19.3,51.7,16.6,48.4,16.6z M29.1,52.3c-1.3,0-2.4-1.1-2.4-2.4     v-2.2c2.4,0.2,4.3,2.1,4.5,4.6H29.1z M43.3,49.9c0,1.3-1.1,2.4-2.4,2.4h-2.1c0.1-2.4,2-4.4,4.5-4.6V49.9z M43.3,46.1     c-3.3,0.2-6,2.9-6.1,6.2h-4.4c-0.1-3.3-2.8-6-6.1-6.2V28.6h16.6V46.1z M51.2,31.3c0,1.6-1.3,2.9-2.9,2.9h-1.8v-5.5h0.9     c0.9,0,1.6-0.7,1.6-1.6c0-0.9-0.7-1.6-1.6-1.6H22.6c-0.9,0-1.6,0.7-1.6,1.6c0,0.9,0.7,1.6,1.6,1.6h0.9v5.5h-1.8     c-1.6,0-2.9-1.3-2.9-2.9v-8.6c0-1.6,1.3-2.9,2.9-2.9h26.8c1.6,0,2.9,1.3,2.9,2.9V31.3z"/><ellipse class="st5" cx="35" cy="35.4" rx="4.6" ry="3.5"/><circle class="st5" cx="35" cy="44.4" r="1.8"/></g></g><g class="st4"><g><path class="st2" d="M35,16.6H21.6c-3.4,0-6.1,2.8-6.1,6.1v8.6c0,3.4,2.7,6.1,6.1,6.1h1.8v12.6c0,3.1,2.5,5.6,5.6,5.6H35V16.6z"/></g><g><path class="st2" d="M35,52.3h-2.2c-0.1-3.3-2.8-6-6.1-6.2V28.6H35v-3.2H22.6c-0.9,0-1.6,0.7-1.6,1.6c0,0.9,0.7,1.6,1.6,1.6h0.9     v5.5h-1.8c-1.6,0-2.9-1.3-2.9-2.9v-8.6c0-1.6,1.3-2.9,2.9-2.9H35v-3.2H21.6c-3.4,0-6.1,2.7-6.1,6.1v8.6c0,3.4,2.7,6.1,6.1,6.1     h1.8v12.6c0,3.1,2.5,5.6,5.6,5.6H35V52.3z M29.1,52.3c-1.3,0-2.4-1.1-2.4-2.4v-2.2c2.4,0.2,4.3,2.1,4.5,4.6H29.1z"/><path class="st2" d="M35,31.9c-2.5,0-4.5,1.6-4.5,3.5s2,3.5,4.5,3.5V31.9z"/><path class="st2" d="M35,42.6c-1,0-1.8,0.8-1.8,1.8s0.8,1.8,1.8,1.8V42.6z"/></g></g></g></svg>