<?xml version="1.0" ?><svg id="Layer_1" style="enable-background:new 0 0 70 70;" version="1.1" viewBox="0 0 70 70" xml:space="preserve" xmlns="http://www.w3.org/2000/svg" xmlns:xlink="http://www.w3.org/1999/xlink"><style type="text/css">
	.st0{fill:#A5CEB9;}
	.st1{opacity:0.3;}
	.st2{fill:#FFFFFF;}
	.st3{fill:#F2F6F7;}
	.st4{opacity:0.2;}
	.st5{fill:#B2DDC9;}
	.st6{fill:#EAAAA8;}
	.st7{fill:#D8E3EA;}
	.st8{fill:#E29898;}
	.st9{fill:#FCD786;}
	.st10{fill:#FFE98A;}
	.st11{fill:#99C6DD;}
	.st12{fill:#B0D6EC;}
	.st13{opacity:0.4;}
	.st14{opacity:0.25;}
	.st15{opacity:0.2;fill:#FFFFFF;}
	.st16{opacity:4.000000e-02;}
</style><g><g><path class="st11" d="M55.8,38.8c0,8.4-6.8,15.2-15.1,15.2H19.1c-0.9,0-1.6-0.7-1.6-1.6V17.6c0-0.9,0.7-1.6,1.6-1.6h27.7    c0.9,0,1.6,0.7,1.6,1.6v8.1C52.8,28.4,55.8,33.2,55.8,38.8z"/><path class="st15" d="M35.2,16.1v37.9h-16c-0.9,0-1.6-0.7-1.6-1.6V17.6c0-0.9,0.7-1.6,1.6-1.6H35.2z"/><g><g><path class="st12" d="M48.4,25.8v-8.1c0-0.9-0.7-1.6-1.6-1.6H19.1c-0.9,0-1.6,0.7-1.6,1.6v34.7c0,0.9,0.7,1.6,1.6,1.6h21.5      c0,0,0,0,0,0c8.4,0,15.2-6.8,15.2-15.2C55.8,33.2,52.8,28.4,48.4,25.8z M20.7,19.2h24.6v5.1c-1.5-0.5-3-0.7-4.6-0.7      c-2.1,0-4,0.4-5.8,1.2H20.7V19.2z M20.7,27.9h9.4c-1.6,1.5-2.8,3.4-3.6,5.5h-5.8V27.9z M20.7,36.6h5c-0.1,0.7-0.2,1.4-0.2,2.2      c0,1.1,0.1,2.3,0.4,3.3h-5.2V36.6z M20.7,50.8v-5.5H27c1,2.2,2.6,4.1,4.5,5.5H20.7z M40.6,50.8c-6.6,0-12-5.4-12-12      s5.4-12,12-12s12,5.4,12,12S47.3,50.8,40.6,50.8z"/><path class="st12" d="M41.4,36.9v-4c0.7,0.3,1.1,0.8,1.2,1.6l2.6-0.3c-0.2-1-0.6-1.9-1.2-2.5s-1.5-1-2.6-1.1v-1h-1.5v1      c-1.2,0.1-2.1,0.6-2.8,1.3c-0.7,0.8-1.1,1.7-1.1,2.8c0,1.1,0.3,2.1,0.9,2.8c0.6,0.8,1.6,1.4,3,1.7v4.3c-0.4-0.2-0.7-0.5-1-0.9      c-0.3-0.4-0.5-0.9-0.6-1.4l-2.7,0.3c0.2,1.4,0.7,2.4,1.4,3.1c0.7,0.7,1.7,1.2,2.9,1.3V48h1.5V46c1.3-0.2,2.4-0.7,3.1-1.6      c0.8-0.9,1.1-1.9,1.1-3.1c0-1.1-0.3-2-0.9-2.7C44.1,37.9,43,37.3,41.4,36.9z M39.9,36.4c-0.4-0.2-0.8-0.4-1-0.8      c-0.2-0.3-0.3-0.7-0.3-1c0-0.4,0.1-0.8,0.4-1.1c0.2-0.3,0.6-0.6,1-0.7V36.4z M42.6,43.1c-0.3,0.4-0.7,0.6-1.3,0.7v-4      c0.6,0.2,1.1,0.4,1.3,0.8c0.3,0.3,0.4,0.7,0.4,1.2C43.1,42.2,42.9,42.7,42.6,43.1z"/><path class="st15" d="M40.6,48V29.5h-0.7v1c-1.2,0.1-2.1,0.6-2.8,1.3c-0.7,0.8-1.1,1.7-1.1,2.8c0,1.1,0.3,2.1,0.9,2.8      c0.6,0.8,1.6,1.4,3,1.7v4.3c-0.4-0.2-0.7-0.5-1-0.9c-0.3-0.4-0.5-0.9-0.6-1.4l-2.7,0.3c0.2,1.4,0.7,2.4,1.4,3.1      c0.7,0.7,1.7,1.2,2.9,1.3V48H40.6z M38.9,35.6c-0.2-0.3-0.3-0.7-0.3-1c0-0.4,0.1-0.8,0.4-1.1c0.2-0.3,0.6-0.6,1-0.7v3.6      C39.4,36.2,39.1,35.9,38.9,35.6z"/><path class="st2" d="M45.1,29.5c1.2,0.9,2.3,1.9,3.2,3.1c0.9,1.1,1.6,2.4,2.3,3.8c0-1.6-0.7-3.1-1.7-4.3      C48,30.9,46.6,29.9,45.1,29.5z"/></g><g class="st4"><path class="st2" d="M35.2,49.4c-3.9-2-6.5-6-6.5-10.7c0-4.7,2.7-8.7,6.5-10.7v-3.4c-0.1,0-0.2,0.1-0.3,0.1H20.7v-5.5h14.5v-3.2      h-16c-0.9,0-1.6,0.7-1.6,1.6v34.7c0,0.9,0.7,1.6,1.6,1.6h16V49.4z M20.7,27.9h9.4c-1.6,1.5-2.8,3.4-3.6,5.5h-5.8V27.9z       M20.7,36.6h5c-0.1,0.7-0.2,1.4-0.2,2.2c0,1.1,0.1,2.3,0.4,3.3h-5.2V36.6z M20.7,50.8v-5.5H27c1,2.2,2.6,4.1,4.5,5.5H20.7z"/></g></g></g></g></svg>