<?xml version="1.0" ?><svg id="Layer_1" style="enable-background:new 0 0 70 70;" version="1.1" viewBox="0 0 70 70" xml:space="preserve" xmlns="http://www.w3.org/2000/svg" xmlns:xlink="http://www.w3.org/1999/xlink"><style type="text/css">
	.st0{fill:#A5CEB9;}
	.st1{opacity:0.3;}
	.st2{fill:#FFFFFF;}
	.st3{fill:#F2F6F7;}
	.st4{opacity:0.2;}
	.st5{fill:#B2DDC9;}
	.st6{fill:#EAAAA8;}
	.st7{fill:#D8E3EA;}
	.st8{fill:#E29898;}
	.st9{fill:#FCD786;}
	.st10{fill:#FFE98A;}
	.st11{fill:#99C6DD;}
	.st12{fill:#B0D6EC;}
	.st13{opacity:0.4;}
	.st14{opacity:0.25;}
	.st15{opacity:0.2;fill:#FFFFFF;}
	.st16{opacity:4.000000e-02;}
</style><g><g><g><g><path class="st7" d="M59,35c0,13.2-10.8,24-24,24c-13.2,0-24-10.8-24-24s10.8-24,24-24C48.2,11,59,21.8,59,35z"/></g></g></g><g><g><path class="st3" d="M35,11c-13.2,0-24,10.8-24,24s10.8,24,24,24s24-10.8,24-24S48.2,11,35,11z M35,55c-11,0-20-9-20-20     s9-20,20-20s20,9,20,20S46,55,35,55z"/><path class="st3" d="M35,17.5c-9.6,0-17.5,7.9-17.5,17.5S25.4,52.5,35,52.5S52.5,44.6,52.5,35S44.6,17.5,35,17.5z M35,50.5     c-8.5,0-15.5-7-15.5-15.5s7-15.5,15.5-15.5s15.5,7,15.5,15.5S43.5,50.5,35,50.5z"/><path class="st3" d="M35.9,32.8v-4.7c0.8,0.3,1.3,1,1.4,1.9l3-0.4c-0.2-1.2-0.7-2.2-1.4-2.9s-1.8-1.2-3-1.3v-1.2h-1.7v1.2     c-1.4,0.1-2.5,0.7-3.3,1.5s-1.2,2-1.2,3.3c0,1.3,0.4,2.4,1.1,3.3c0.7,0.9,1.9,1.6,3.5,2v5c-0.4-0.2-0.8-0.5-1.2-1     c-0.4-0.5-0.6-1-0.7-1.7l-3.1,0.3c0.2,1.6,0.8,2.8,1.7,3.7s2,1.4,3.4,1.6v2.2h1.7v-2.2c1.6-0.2,2.8-0.8,3.7-1.8     c0.9-1,1.3-2.2,1.3-3.7c0-1.3-0.3-2.4-1-3.2C39.1,34,37.8,33.3,35.9,32.8z M34.2,32.2c-0.5-0.2-0.9-0.5-1.2-0.9     c-0.3-0.4-0.4-0.8-0.4-1.2c0-0.5,0.1-0.9,0.4-1.3c0.3-0.4,0.7-0.7,1.1-0.8V32.2z M37.4,40c-0.4,0.4-0.9,0.7-1.5,0.8v-4.7     c0.7,0.2,1.2,0.5,1.6,0.9c0.3,0.4,0.5,0.9,0.5,1.4C37.9,39,37.7,39.6,37.4,40z"/></g><g class="st13"><path class="st2" d="M35.1,55C35.1,55,35,55,35.1,55C24,55,15,46,15,35s9-20,20-20c0,0,0.1,0,0.1,0v-4c0,0-0.1,0-0.1,0     c-13.2,0-24,10.8-24,24s10.8,24,24,24c0,0,0.1,0,0.1,0V55z"/><path class="st2" d="M35.1,50.5C35.1,50.5,35,50.5,35.1,50.5c-8.6,0-15.6-6.9-15.6-15.5s7-15.5,15.5-15.5c0,0,0.1,0,0.1,0v-2     c0,0-0.1,0-0.1,0c-9.6,0-17.5,7.9-17.5,17.5S25.4,52.5,35,52.5c0,0,0.1,0,0.1,0V50.5z"/><path class="st2" d="M35.1,45.8V24.3h-0.9v1.2c-1.4,0.1-2.5,0.7-3.3,1.5s-1.2,2-1.2,3.3c0,1.3,0.4,2.4,1.1,3.3     c0.7,0.9,1.9,1.6,3.5,2v5c-0.4-0.2-0.8-0.5-1.2-1c-0.4-0.5-0.6-1-0.7-1.7l-3.1,0.3c0.2,1.6,0.8,2.8,1.7,3.7s2,1.4,3.4,1.6v2.2     H35.1z M33,31.3c-0.3-0.4-0.4-0.8-0.4-1.2c0-0.5,0.1-0.9,0.4-1.3c0.3-0.4,0.7-0.7,1.1-0.8v4.2C33.6,32,33.2,31.7,33,31.3z"/></g></g></g></svg>