<?xml version="1.0" ?><svg id="Layer_1" style="enable-background:new 0 0 70 70;" version="1.1" viewBox="0 0 70 70" xml:space="preserve" xmlns="http://www.w3.org/2000/svg" xmlns:xlink="http://www.w3.org/1999/xlink"><style type="text/css">
	.st0{fill:#A5CEB9;}
	.st1{opacity:0.3;}
	.st2{fill:#FFFFFF;}
	.st3{fill:#F2F6F7;}
	.st4{opacity:0.2;}
	.st5{fill:#B2DDC9;}
	.st6{fill:#EAAAA8;}
	.st7{fill:#D8E3EA;}
	.st8{fill:#E29898;}
	.st9{fill:#FCD786;}
	.st10{fill:#FFE98A;}
	.st11{fill:#99C6DD;}
	.st12{fill:#B0D6EC;}
	.st13{opacity:0.4;}
	.st14{opacity:0.25;}
	.st15{opacity:0.2;fill:#FFFFFF;}
	.st16{opacity:4.000000e-02;}
</style><g><g><g><g><path class="st7" d="M52.5,26.8v21.8c0,2.7-2.2,4.9-4.9,4.9H24.7c-2.7,0-4.9-2.2-4.9-4.9V18.1c0-2.7,2.2-4.9,4.9-4.9h14.1      c0.4,0,0.9,0.2,1.2,0.5L52,25.6C52.3,25.9,52.5,26.3,52.5,26.8z"/></g><g class="st1"><path class="st2" d="M36.2,13.2H24.7c-2.7,0-4.9,2.2-4.9,4.9v30.6c0,2.7,2.2,4.9,4.9,4.9h11.4V13.2z"/></g><g><path class="st3" d="M40.1,13.6c-0.3-0.3-0.7-0.5-1.2-0.5H24.7c-2.7,0-4.9,2.2-4.9,4.9v30.5c0,2.7,2.2,4.9,4.9,4.9h22.8      c2.7,0,4.9-2.2,4.9-4.9V26.8c0-0.4-0.2-0.9-0.5-1.2L40.1,13.6z M40.5,18.9l6.2,6.2h-6.2V18.9z M49.1,48.6c0,0.8-0.7,1.5-1.5,1.5      H24.7c-0.8,0-1.5-0.7-1.5-1.5V18.1c0-0.8,0.7-1.5,1.5-1.5h12.4v10.3c0,0.9,0.8,1.7,1.7,1.7h10.3V48.6z"/><path class="st3" d="M44.1,42.9H28.2c-0.9,0-1.7,0.8-1.7,1.7s0.8,1.7,1.7,1.7h15.9c0.9,0,1.7-0.8,1.7-1.7S45.1,42.9,44.1,42.9z"/><path class="st3" d="M26.5,36.6c0,0.9,0.8,1.7,1.7,1.7h15.9c0.9,0,1.7-0.8,1.7-1.7s-0.8-1.7-1.7-1.7H28.2      C27.3,34.9,26.5,35.7,26.5,36.6z"/><path class="st3" d="M28.2,30.3h3.1c0.9,0,1.7-0.8,1.7-1.7s-0.8-1.7-1.7-1.7h-3.1c-0.9,0-1.7,0.8-1.7,1.7S27.3,30.3,28.2,30.3z"/></g></g><g class="st1"><path class="st2" d="M36.2,50.1H24.7c-0.8,0-1.5-0.7-1.5-1.5V18.1c0-0.8,0.7-1.5,1.5-1.5H36v-3.4H24.7c-2.7,0-4.9,2.2-4.9,4.9     v30.5c0,2.7,2.2,4.9,4.9,4.9h11.4V50.1z"/><path class="st2" d="M36.2,42.9h-8c-0.9,0-1.7,0.8-1.7,1.7s0.8,1.7,1.7,1.7h8V42.9z"/><path class="st2" d="M36.2,34.9h-8c-0.9,0-1.7,0.8-1.7,1.7s0.8,1.7,1.7,1.7h8V34.9z"/><path class="st2" d="M28.2,30.3h3.1c0.9,0,1.7-0.8,1.7-1.7s-0.8-1.7-1.7-1.7h-3.1c-0.9,0-1.7,0.8-1.7,1.7S27.3,30.3,28.2,30.3z"/></g></g></g></svg>