<?xml version="1.0" ?><svg id="Layer_1" style="enable-background:new 0 0 70 70;" version="1.1" viewBox="0 0 70 70" xml:space="preserve" xmlns="http://www.w3.org/2000/svg" xmlns:xlink="http://www.w3.org/1999/xlink"><style type="text/css">
	.st0{fill:#A5CEB9;}
	.st1{opacity:0.3;}
	.st2{fill:#FFFFFF;}
	.st3{fill:#F2F6F7;}
	.st4{opacity:0.2;}
	.st5{fill:#B2DDC9;}
	.st6{fill:#EAAAA8;}
	.st7{fill:#D8E3EA;}
	.st8{fill:#E29898;}
	.st9{fill:#FCD786;}
	.st10{fill:#FFE98A;}
	.st11{fill:#99C6DD;}
	.st12{fill:#B0D6EC;}
	.st13{opacity:0.4;}
	.st14{opacity:0.25;}
	.st15{opacity:0.2;fill:#FFFFFF;}
	.st16{opacity:4.000000e-02;}
</style><g><g><g><path class="st0" d="M58.9,30.8c-0.1,0.7-0.3,1.4-0.7,2c-0.4,0.6-0.8,1.2-1.4,1.7c-0.6,0.5-1.2,0.9-1.9,1.2     c-0.2,0.1-0.4,0.2-0.6,0.3c-0.3,4.4-2.6,8.5-6.4,11.5v4.5c0,0.9-0.8,1.7-1.7,1.7h-6.6c-0.8,0-1.5-0.5-1.7-1.3l-0.2-0.8     c-1.8,0.2-3.6,0.2-5.4-0.1l-0.2,0.9c-0.2,0.8-0.9,1.3-1.6,1.3h-6.7c-0.9,0-1.7-0.8-1.7-1.7v-5.1c-1.6-1.4-2.9-3.1-3.9-4.9h-1.1     c-0.9,0-1.7-0.8-1.7-1.7V29.4c0-0.9,0.8-1.7,1.7-1.7h1.1c0.7-1.3,1.6-2.5,2.6-3.6c-0.4-1.5-1.4-4-3.4-6.1     c-0.6-0.6-0.1-1.6,0.8-1.5c2.4,0.2,5.9,1.1,8.3,3.5c2.7-1.3,5.8-2,8.9-2c9.8,0,17.9,6.7,18.8,15.2c0.5-0.1,1-0.2,1.5-0.3     c0.5-0.2,1-0.5,1.5-0.8c0.5-0.4,0.8-0.9,1.2-1.4l0,0c0.1-0.1,0.2-0.2,0.3-0.1C58.9,30.6,58.9,30.7,58.9,30.8z"/></g><g class="st4"><path class="st2" d="M35.3,17.9v33.7c-1,0-2-0.1-2.9-0.2l-0.2,0.9c-0.2,0.8-0.9,1.3-1.6,1.3h-6.7c-0.9,0-1.7-0.8-1.7-1.7v-5.1     c-1.6-1.4-2.9-3.1-3.9-4.9h-1.1c-0.9,0-1.7-0.8-1.7-1.7V29.4c0-0.9,0.8-1.7,1.7-1.7h1.1c0.7-1.3,1.6-2.5,2.6-3.6     c-0.4-1.5-1.4-4-3.4-6.1c-0.6-0.6-0.1-1.6,0.8-1.5c2.4,0.2,5.9,1.1,8.3,3.5C29.2,18.7,32.2,18,35.3,17.9z"/></g><g><path class="st5" d="M17.2,41.9h1.1c0.9,1.8,2.3,3.5,3.9,4.9v5.1c0,0.9,0.8,1.7,1.7,1.7h6.7c0.8,0,1.5-0.5,1.6-1.3l0.2-0.9     c1.8,0.3,3.6,0.3,5.4,0.1l0.2,0.8c0.2,0.8,0.9,1.3,1.6,1.3h6.7c0.9,0,1.7-0.8,1.7-1.7v-4.5c3.8-2.9,6-7,6.4-11.5     c0.2-0.1,0.4-0.2,0.6-0.3c0.7-0.3,1.3-0.7,1.9-1.2c0.6-0.5,1-1.1,1.4-1.7c0.4-0.6,0.6-1.3,0.7-2c0-0.1,0-0.2-0.1-0.2     c-0.1-0.1-0.3,0-0.3,0.1l0,0c-0.3,0.5-0.7,1-1.2,1.4c-0.5,0.4-0.9,0.6-1.5,0.8c-0.5,0.2-1,0.3-1.5,0.3c-0.9-8.5-9-15.2-18.8-15.2     c-3.2,0-6.2,0.7-8.9,2c-2.4-2.5-5.9-3.3-8.3-3.5c-0.8-0.1-1.4,0.9-0.8,1.5c2,2.1,3,4.6,3.4,6.1c-1,1.1-1.9,2.3-2.6,3.6h-1.1     c-0.9,0-1.7,0.8-1.7,1.7v10.8C15.5,41.1,16.3,41.9,17.2,41.9z M18.9,31.1h0.5c0.7,0,1.3-0.4,1.6-1c2.3-5.2,8.1-8.7,14.5-8.7     c8.6,0,15.5,6,15.5,13.5c0,4.1-2.1,7.9-5.7,10.4c-0.4,0.3-0.7,0.8-0.7,1.4v3.6h-3.6l-0.2-1c-0.2-0.9-1.1-1.4-2-1.3     c-2.3,0.4-4.9,0.4-7.2-0.2c-0.4-0.1-0.9,0-1.3,0.2c-0.4,0.2-0.7,0.6-0.8,1.1l-0.3,1.2h-3.6V46c0-0.5-0.2-1-0.6-1.3     c-1.8-1.4-3.2-3.2-4-5.2c-0.3-0.6-0.9-1-1.5-1h-0.5V31.1z"/><ellipse class="st5" cx="24.9" cy="28.5" rx="1.5" ry="1.1" transform="matrix(0.8635 -0.5044 0.5044 0.8635 -10.9951 16.4797)"/><path class="st2" d="M35.4,24.5c0.9,0,1.8,0,2.7,0.1c0.9,0.1,1.8,0.2,2.8,0.3c-0.8-0.6-1.7-1-2.6-1.3c-0.9-0.3-1.9-0.4-2.9-0.4     c-1,0-2,0.1-2.9,0.4c-0.9,0.3-1.8,0.7-2.6,1.3c1-0.1,1.9-0.2,2.8-0.3C33.6,24.5,34.5,24.5,35.4,24.5z"/></g><g class="st4"><path class="st2" d="M35.3,48.2c-1.3,0-2.6-0.2-3.8-0.4c-0.4-0.1-0.9,0-1.3,0.2c-0.4,0.2-0.7,0.6-0.8,1.1l-0.3,1.2h-3.6V46     c0-0.5-0.2-1-0.6-1.3c-1.8-1.4-3.2-3.2-4-5.2c-0.3-0.6-0.9-1-1.5-1h-0.5v-7.4h0.5c0.7,0,1.3-0.4,1.6-1c2.2-5.2,8-8.7,14.4-8.7     v-3.4c-3.1,0-6.1,0.7-8.8,2c-2.4-2.5-5.9-3.3-8.3-3.5c-0.8-0.1-1.4,0.9-0.8,1.5c2,2.1,3,4.6,3.4,6.1c-1,1.1-1.9,2.3-2.6,3.6h-1.1     c-0.9,0-1.7,0.8-1.7,1.7v10.8c0,0.9,0.8,1.7,1.7,1.7h1.1c0.9,1.8,2.3,3.5,3.9,4.9v5.1c0,0.9,0.8,1.7,1.7,1.7h6.7     c0.8,0,1.5-0.5,1.6-1.3l0.2-0.9c1,0.1,1.9,0.2,2.9,0.2V48.2z"/><ellipse class="st2" cx="24.9" cy="28.5" rx="1.5" ry="1.1" transform="matrix(0.8635 -0.5044 0.5044 0.8635 -10.9951 16.4797)"/><path class="st2" d="M35.3,23.2c-0.9,0-1.9,0.1-2.8,0.4c-0.9,0.3-1.8,0.7-2.6,1.3c1-0.1,1.9-0.2,2.8-0.3c0.9-0.1,1.7-0.1,2.6-0.1     V23.2z"/></g></g></g></svg>