<?xml version="1.0" ?><svg id="Layer_1" style="enable-background:new 0 0 70 70;" version="1.1" viewBox="0 0 70 70" xml:space="preserve" xmlns="http://www.w3.org/2000/svg" xmlns:xlink="http://www.w3.org/1999/xlink"><style type="text/css">
	.st0{fill:#A5CEB9;}
	.st1{opacity:0.3;}
	.st2{fill:#FFFFFF;}
	.st3{fill:#F2F6F7;}
	.st4{opacity:0.2;}
	.st5{fill:#B2DDC9;}
	.st6{fill:#EAAAA8;}
	.st7{fill:#D8E3EA;}
	.st8{fill:#E29898;}
	.st9{fill:#FCD786;}
	.st10{fill:#FFE98A;}
	.st11{fill:#99C6DD;}
	.st12{fill:#B0D6EC;}
	.st13{opacity:0.4;}
	.st14{opacity:0.25;}
	.st15{opacity:0.2;fill:#FFFFFF;}
	.st16{opacity:4.000000e-02;}
</style><g><g><path class="st11" d="M24.5,24.6L24.2,21c0-0.6,0.1-1.1,0.5-1.6c0.1-0.1,0.3-0.2,0.4-0.3c1.1-4.5,5.2-7.7,9.9-7.7    c4.7,0,8.8,3.2,9.9,7.7c0.2,0.1,0.3,0.2,0.4,0.3c0.4,0.4,0.6,1,0.5,1.6l0,0l-0.3,3.6c-0.1,0.7-0.5,1.3-1.1,1.6    c-1.6,4.6-5.3,7.6-9.4,7.6c-4.1,0-7.8-3-9.4-7.7C25,25.9,24.6,25.3,24.5,24.6z"/><path class="st11" d="M51.9,52.8c-0.8,1-2,1.6-3.4,1.6h-27c-1.3,0-2.5-0.6-3.4-1.6c-0.8-1-1.1-2.4-0.8-3.6l2.2-9.9    c0.4-2,2.2-3.4,4.2-3.4h22.6c2,0,3.8,1.4,4.2,3.4l2.2,9.9C53,50.4,52.7,51.7,51.9,52.8z"/></g><g><path class="st12" d="M25.6,26.2c1.6,4.6,5.3,7.7,9.4,7.7c4.1,0,7.8-3,9.4-7.6c0.6-0.3,1-0.9,1.1-1.6l0.3-3.6l0,0    c0-0.6-0.1-1.1-0.5-1.6c-0.1-0.1-0.3-0.2-0.4-0.3c-1.1-4.5-5.2-7.7-9.9-7.7c-4.7,0-8.8,3.2-9.9,7.7c-0.1,0.1-0.3,0.2-0.4,0.3    c-0.4,0.4-0.6,1-0.5,1.6l0.3,3.6C24.6,25.3,25,25.9,25.6,26.2z M27.4,21.4l0.2-1.1c0.6-3.6,3.8-6.3,7.5-6.3c3.7,0,6.8,2.6,7.5,6.3    l0.2,1.1h0.5l-0.2,2.4h-0.5l-0.3,0.9c-1.1,3.9-4,6.4-7.1,6.4c-3.1,0-6-2.6-7.1-6.4l-0.4-0.9h-0.4l-0.2-2.4H27.4z"/><path class="st12" d="M19.5,39.2l-2.2,9.9c-0.3,1.3,0,2.6,0.8,3.6s2.1,1.6,3.4,1.6h27c1.3,0,2.5-0.6,3.4-1.6    c0.8-1,1.1-2.4,0.8-3.6l-2.2-9.9c-0.4-2-2.2-3.4-4.2-3.4H23.7C21.7,35.8,19.9,37.2,19.5,39.2z M32.7,40l0.9,0.9l-1.3,6    c-0.1,0.2,0,0.5,0.2,0.6l2.1,2.1c0.3,0.3,0.7,0.3,1,0l2.1-2.1c0.2-0.2,0.2-0.4,0.2-0.6l-1.3-6l0.9-0.9c0.3-0.3,0.3-0.7,0-1    l-0.6-0.6h9.6c0.8,0,1.5,0.5,1.6,1.3l2.2,9.9c0.1,0.5,0,1-0.3,1.4c-0.3,0.4-0.8,0.6-1.3,0.6h-27c-0.5,0-1-0.2-1.3-0.6    c-0.3-0.4-0.4-0.9-0.3-1.4l2.2-9.9c0.2-0.8,0.8-1.3,1.6-1.3h9.6l-0.6,0.6C32.4,39.3,32.4,39.7,32.7,40z"/></g><g><path class="st12" d="M25.6,26.2c1.6,4.6,5.3,7.7,9.4,7.7c4.1,0,7.8-3,9.4-7.6c0.6-0.3,1-0.9,1.1-1.6l0.3-3.6l0,0    c0-0.6-0.1-1.1-0.5-1.6c-0.1-0.1-0.3-0.2-0.4-0.3c-1.1-4.5-5.2-7.7-9.9-7.7c-4.7,0-8.8,3.2-9.9,7.7c-0.1,0.1-0.3,0.2-0.4,0.3    c-0.4,0.4-0.6,1-0.5,1.6l0.3,3.6C24.6,25.3,25,25.9,25.6,26.2z M27.4,21.4l0.2-1.1c0.6-3.6,3.8-6.3,7.5-6.3c3.7,0,6.8,2.6,7.5,6.3    l0.2,1.1h0.5l-0.2,2.4h-0.5l-0.3,0.9c-1.1,3.9-4,6.4-7.1,6.4c-3.1,0-6-2.6-7.1-6.4l-0.4-0.9h-0.4l-0.2-2.4H27.4z"/><path class="st12" d="M19.5,39.2l-2.2,9.9c-0.3,1.3,0,2.6,0.8,3.6s2.1,1.6,3.4,1.6h27c1.3,0,2.5-0.6,3.4-1.6    c0.8-1,1.1-2.4,0.8-3.6l-2.2-9.9c-0.4-2-2.2-3.4-4.2-3.4H23.7C21.7,35.8,19.9,37.2,19.5,39.2z M32.7,40l0.9,0.9l-1.3,6    c-0.1,0.2,0,0.5,0.2,0.6l2.1,2.1c0.3,0.3,0.7,0.3,1,0l2.1-2.1c0.2-0.2,0.2-0.4,0.2-0.6l-1.3-6l0.9-0.9c0.3-0.3,0.3-0.7,0-1    l-0.6-0.6h9.6c0.8,0,1.5,0.5,1.6,1.3l2.2,9.9c0.1,0.5,0,1-0.3,1.4c-0.3,0.4-0.8,0.6-1.3,0.6h-27c-0.5,0-1-0.2-1.3-0.6    c-0.3-0.4-0.4-0.9-0.3-1.4l2.2-9.9c0.2-0.8,0.8-1.3,1.6-1.3h9.6l-0.6,0.6C32.4,39.3,32.4,39.7,32.7,40z"/></g><g><g><path class="st11" d="M24.5,24.6L24.2,21c0-0.6,0.1-1.1,0.5-1.6c0.1-0.1,0.3-0.2,0.4-0.3c1.1-4.5,5.2-7.7,9.9-7.7     c4.7,0,8.8,3.2,9.9,7.7c0.2,0.1,0.3,0.2,0.4,0.3c0.4,0.4,0.6,1,0.5,1.6l0,0l-0.3,3.6c-0.1,0.7-0.5,1.3-1.1,1.6     c-1.6,4.6-5.3,7.6-9.4,7.6c-4.1,0-7.8-3-9.4-7.7C25,25.9,24.6,25.3,24.5,24.6z"/><path class="st11" d="M51.9,52.8c-0.8,1-2,1.6-3.4,1.6h-27c-1.3,0-2.5-0.6-3.4-1.6c-0.8-1-1.1-2.4-0.8-3.6l2.2-9.9     c0.4-2,2.2-3.4,4.2-3.4h22.6c2,0,3.8,1.4,4.2,3.4l2.2,9.9C53,50.4,52.7,51.7,51.9,52.8z"/></g><g><path class="st12" d="M25.6,26.2c1.6,4.6,5.3,7.7,9.4,7.7c4.1,0,7.8-3,9.4-7.6c0.6-0.3,1-0.9,1.1-1.6l0.3-3.6l0,0     c0-0.6-0.1-1.1-0.5-1.6c-0.1-0.1-0.3-0.2-0.4-0.3c-1.1-4.5-5.2-7.7-9.9-7.7c-4.7,0-8.8,3.2-9.9,7.7c-0.1,0.1-0.3,0.2-0.4,0.3     c-0.4,0.4-0.6,1-0.5,1.6l0.3,3.6C24.6,25.3,25,25.9,25.6,26.2z M27.4,21.4l0.2-1.1c0.6-3.6,3.8-6.3,7.5-6.3     c3.7,0,6.8,2.6,7.5,6.3l0.2,1.1h0.5l-0.2,2.4h-0.5l-0.3,0.9c-1.1,3.9-4,6.4-7.1,6.4c-3.1,0-6-2.6-7.1-6.4l-0.4-0.9h-0.4l-0.2-2.4     H27.4z"/><path class="st12" d="M19.5,39.2l-2.2,9.9c-0.3,1.3,0,2.6,0.8,3.6s2.1,1.6,3.4,1.6h27c1.3,0,2.5-0.6,3.4-1.6     c0.8-1,1.1-2.4,0.8-3.6l-2.2-9.9c-0.4-2-2.2-3.4-4.2-3.4H23.7C21.7,35.8,19.9,37.2,19.5,39.2z M32.7,40l0.9,0.9l-1.3,6     c-0.1,0.2,0,0.5,0.2,0.6l2.1,2.1c0.3,0.3,0.7,0.3,1,0l2.1-2.1c0.2-0.2,0.2-0.4,0.2-0.6l-1.3-6l0.9-0.9c0.3-0.3,0.3-0.7,0-1     l-0.6-0.6h9.6c0.8,0,1.5,0.5,1.6,1.3l2.2,9.9c0.1,0.5,0,1-0.3,1.4c-0.3,0.4-0.8,0.6-1.3,0.6h-27c-0.5,0-1-0.2-1.3-0.6     c-0.3-0.4-0.4-0.9-0.3-1.4l2.2-9.9c0.2-0.8,0.8-1.3,1.6-1.3h9.6l-0.6,0.6C32.4,39.3,32.4,39.7,32.7,40z"/></g><g><path class="st12" d="M25.6,26.2c1.6,4.6,5.3,7.7,9.4,7.7c4.1,0,7.8-3,9.4-7.6c0.6-0.3,1-0.9,1.1-1.6l0.3-3.6l0,0     c0-0.6-0.1-1.1-0.5-1.6c-0.1-0.1-0.3-0.2-0.4-0.3c-1.1-4.5-5.2-7.7-9.9-7.7c-4.7,0-8.8,3.2-9.9,7.7c-0.1,0.1-0.3,0.2-0.4,0.3     c-0.4,0.4-0.6,1-0.5,1.6l0.3,3.6C24.6,25.3,25,25.9,25.6,26.2z M27.4,21.4l0.2-1.1c0.6-3.6,3.8-6.3,7.5-6.3     c3.7,0,6.8,2.6,7.5,6.3l0.2,1.1h0.5l-0.2,2.4h-0.5l-0.3,0.9c-1.1,3.9-4,6.4-7.1,6.4c-3.1,0-6-2.6-7.1-6.4l-0.4-0.9h-0.4l-0.2-2.4     H27.4z"/><path class="st12" d="M19.5,39.2l-2.2,9.9c-0.3,1.3,0,2.6,0.8,3.6s2.1,1.6,3.4,1.6h27c1.3,0,2.5-0.6,3.4-1.6     c0.8-1,1.1-2.4,0.8-3.6l-2.2-9.9c-0.4-2-2.2-3.4-4.2-3.4H23.7C21.7,35.8,19.9,37.2,19.5,39.2z M32.7,40l0.9,0.9l-1.3,6     c-0.1,0.2,0,0.5,0.2,0.6l2.1,2.1c0.3,0.3,0.7,0.3,1,0l2.1-2.1c0.2-0.2,0.2-0.4,0.2-0.6l-1.3-6l0.9-0.9c0.3-0.3,0.3-0.7,0-1     l-0.6-0.6h9.6c0.8,0,1.5,0.5,1.6,1.3l2.2,9.9c0.1,0.5,0,1-0.3,1.4c-0.3,0.4-0.8,0.6-1.3,0.6h-27c-0.5,0-1-0.2-1.3-0.6     c-0.3-0.4-0.4-0.9-0.3-1.4l2.2-9.9c0.2-0.8,0.8-1.3,1.6-1.3h9.6l-0.6,0.6C32.4,39.3,32.4,39.7,32.7,40z"/></g><g class="st4"><path class="st2" d="M34.8,11.4c-4.7,0.1-8.6,3.2-9.7,7.7c-0.1,0.1-0.3,0.2-0.4,0.3c-0.4,0.4-0.6,1-0.5,1.6l0.3,3.6     c0.1,0.7,0.5,1.3,1.1,1.6c1.6,4.5,5.2,7.6,9.3,7.6V11.4z"/><path class="st2" d="M34.8,35.8H23.7c-2,0-3.8,1.4-4.2,3.4l-2.2,9.9c-0.3,1.3,0,2.6,0.8,3.6c0.8,1,2.1,1.6,3.4,1.6h13.4V35.8z"/></g><g class="st4"><path class="st2" d="M34.8,31.2c-3.1-0.1-5.9-2.7-7-6.4l-0.4-0.9h-0.4l-0.2-2.4h0.5l0.2-1.1c0.6-3.6,3.7-6.2,7.3-6.3v-2.6     c-4.7,0.1-8.6,3.2-9.7,7.7c-0.1,0.1-0.3,0.2-0.4,0.3c-0.4,0.4-0.6,1-0.5,1.6l0.3,3.6c0.1,0.7,0.5,1.3,1.1,1.6     c1.6,4.5,5.2,7.6,9.3,7.6V31.2z"/><path class="st2" d="M34.8,51.7H21.5c-0.5,0-1-0.2-1.3-0.6c-0.3-0.4-0.4-0.9-0.3-1.4l2.2-9.9c0.2-0.8,0.8-1.3,1.6-1.3h9.6     l-0.6,0.6c-0.3,0.3-0.3,0.7,0,1l0.9,0.9l-1.3,6c-0.1,0.2,0,0.5,0.2,0.6l2.1,2.1c0.1,0.1,0.2,0.1,0.3,0.2v-14H23.7     c-2,0-3.8,1.4-4.2,3.4l-2.2,9.9c-0.3,1.3,0,2.6,0.8,3.6c0.8,1,2.1,1.6,3.4,1.6h13.4V51.7z"/></g><g class="st4"><path class="st2" d="M34.8,31.2c-3.1-0.1-5.9-2.7-7-6.4l-0.4-0.9h-0.4l-0.2-2.4h0.5l0.2-1.1c0.6-3.6,3.7-6.2,7.3-6.3v-2.6     c-4.7,0.1-8.6,3.2-9.7,7.7c-0.1,0.1-0.3,0.2-0.4,0.3c-0.4,0.4-0.6,1-0.5,1.6l0.3,3.6c0.1,0.7,0.5,1.3,1.1,1.6     c1.6,4.5,5.2,7.6,9.3,7.6V31.2z"/><path class="st2" d="M34.8,51.7H21.5c-0.5,0-1-0.2-1.3-0.6c-0.3-0.4-0.4-0.9-0.3-1.4l2.2-9.9c0.2-0.8,0.8-1.3,1.6-1.3h9.6     l-0.6,0.6c-0.3,0.3-0.3,0.7,0,1l0.9,0.9l-1.3,6c-0.1,0.2,0,0.5,0.2,0.6l2.1,2.1c0.1,0.1,0.2,0.1,0.3,0.2v-14H23.7     c-2,0-3.8,1.4-4.2,3.4l-2.2,9.9c-0.3,1.3,0,2.6,0.8,3.6c0.8,1,2.1,1.6,3.4,1.6h13.4V51.7z"/></g></g></g></svg>