<?xml version="1.0" ?><svg id="Layer_1" style="enable-background:new 0 0 70 70;" version="1.1" viewBox="0 0 70 70" xml:space="preserve" xmlns="http://www.w3.org/2000/svg" xmlns:xlink="http://www.w3.org/1999/xlink"><style type="text/css">
	.st0{fill:#A5CEB9;}
	.st1{opacity:0.3;}
	.st2{fill:#FFFFFF;}
	.st3{fill:#F2F6F7;}
	.st4{opacity:0.2;}
	.st5{fill:#B2DDC9;}
	.st6{fill:#EAAAA8;}
	.st7{fill:#D8E3EA;}
	.st8{fill:#E29898;}
	.st9{fill:#FCD786;}
	.st10{fill:#FFE98A;}
	.st11{fill:#99C6DD;}
	.st12{fill:#B0D6EC;}
	.st13{opacity:0.4;}
	.st14{opacity:0.25;}
	.st15{opacity:0.2;fill:#FFFFFF;}
	.st16{opacity:4.000000e-02;}
</style><g><g><g><g><path class="st11" d="M55,23.4v21.7c0,3.8-2.8,6.9-6.5,7.4V53c0,0.6-0.5,1.2-1.2,1.2h-3.8c-0.6,0-1.2-0.5-1.2-1.2v-0.4H27.6V53      c0,0.6-0.5,1.2-1.2,1.2h-3.7c-0.6,0-1.2-0.5-1.2-1.2v-0.5C17.8,52,15,48.8,15,45.1V23.4c0-4.1,3.4-7.5,7.5-7.5h25      C51.6,15.9,55,19.2,55,23.4z"/></g><g><path class="st12" d="M47.5,15.9h-25c-4.1,0-7.5,3.4-7.5,7.5v21.7c0,3.8,2.8,6.9,6.5,7.4V53c0,0.6,0.5,1.2,1.2,1.2h3.7      c0.6,0,1.2-0.5,1.2-1.2v-0.4h14.9V53c0,0.6,0.5,1.2,1.2,1.2h3.7c0.6,0,1.2-0.5,1.2-1.2v-0.5c3.7-0.5,6.5-3.6,6.5-7.4V23.4      C55,19.2,51.6,15.9,47.5,15.9z M51.7,45.1c0,2.3-1.9,4.1-4.2,4.1h-25c-2.3,0-4.1-1.9-4.1-4.1V23.4c0-2.3,1.9-4.1,4.1-4.1h25      c2.3,0,4.2,1.9,4.2,4.1V45.1z"/><path class="st12" d="M24,23.3h-1.4c-0.3,0-0.6,0.2-0.6,0.6v4.5c0,0.3,0.2,0.6,0.6,0.6H24c0.3,0,0.6-0.2,0.6-0.6v-4.5      C24.5,23.5,24.3,23.3,24,23.3z"/><path class="st12" d="M24,31.4h-1.4c-0.3,0-0.6,0.2-0.6,0.6v4.5c0,0.3,0.2,0.6,0.6,0.6H24c0.3,0,0.6-0.2,0.6-0.6V32      C24.5,31.7,24.3,31.4,24,31.4z"/><path class="st12" d="M24,39.6h-1.4c-0.3,0-0.6,0.2-0.6,0.6v4.5c0,0.3,0.2,0.6,0.6,0.6H24c0.3,0,0.6-0.2,0.6-0.6v-4.5      C24.5,39.8,24.3,39.6,24,39.6z"/><path class="st12" d="M46,32.5h-1.3c-0.5-1.8-1.9-3.2-3.7-3.7v-1.3c0-0.9-0.7-1.7-1.7-1.7s-1.7,0.7-1.7,1.7v1.3      c-1.8,0.5-3.2,1.9-3.7,3.7h-1.3c-0.9,0-1.7,0.7-1.7,1.7s0.7,1.7,1.7,1.7H34c0.5,1.8,1.9,3.2,3.7,3.7v1.3c0,0.9,0.7,1.7,1.7,1.7      s1.7-0.7,1.7-1.7v-1.3c1.8-0.5,3.2-1.9,3.7-3.7H46c0.9,0,1.7-0.7,1.7-1.7S46.9,32.5,46,32.5z M39.4,36.5c-1.3,0-2.3-1-2.3-2.3      c0-1.3,1-2.3,2.3-2.3c1.3,0,2.3,1,2.3,2.3C41.7,35.5,40.6,36.5,39.4,36.5z"/></g></g><g class="st4"><g><path class="st2" d="M35,15.9H22.5c-4.1,0-7.5,3.4-7.5,7.5v21.7c0,3.8,2.8,6.9,6.5,7.4V53c0,0.6,0.5,1.2,1.2,1.2h3.7      c0.7,0,1.2-0.5,1.2-1.2v-0.4H35V15.9z"/></g><g><path class="st2" d="M35,49.2H22.5c-2.3,0-4.2-1.9-4.2-4.1V23.4c0-2.3,1.9-4.1,4.2-4.1H35v-3.3H22.5c-4.1,0-7.5,3.4-7.5,7.5      v21.7c0,3.8,2.8,6.9,6.5,7.4V53c0,0.6,0.5,1.2,1.2,1.2h3.7c0.6,0,1.2-0.5,1.2-1.2v-0.4H35V49.2z"/><path class="st2" d="M24,23.3h-1.4c-0.3,0-0.6,0.2-0.6,0.6v4.5c0,0.3,0.2,0.6,0.6,0.6H24c0.3,0,0.6-0.2,0.6-0.6v-4.5      C24.5,23.5,24.3,23.3,24,23.3z"/><path class="st2" d="M24,31.4h-1.4c-0.3,0-0.6,0.2-0.6,0.6v4.5c0,0.3,0.2,0.6,0.6,0.6H24c0.3,0,0.6-0.2,0.6-0.6V32      C24.5,31.7,24.3,31.4,24,31.4z"/><path class="st2" d="M24,39.6h-1.4c-0.3,0-0.6,0.2-0.6,0.6v4.5c0,0.3,0.2,0.6,0.6,0.6H24c0.3,0,0.6-0.2,0.6-0.6v-4.5      C24.5,39.8,24.3,39.6,24,39.6z"/><path class="st2" d="M35,30.7c-0.4,0.5-0.8,1.2-1,1.8h-1.3c-0.9,0-1.7,0.7-1.7,1.7s0.7,1.7,1.7,1.7H34c0.2,0.7,0.6,1.3,1,1.8      V30.7z"/></g></g></g></g></svg>