<?xml version="1.0" ?><svg id="Layer_1" style="enable-background:new 0 0 70 70;" version="1.1" viewBox="0 0 70 70" xml:space="preserve" xmlns="http://www.w3.org/2000/svg" xmlns:xlink="http://www.w3.org/1999/xlink"><style type="text/css">
	.st0{fill:#A5CEB9;}
	.st1{opacity:0.3;}
	.st2{fill:#FFFFFF;}
	.st3{fill:#F2F6F7;}
	.st4{opacity:0.2;}
	.st5{fill:#B2DDC9;}
	.st6{fill:#EAAAA8;}
	.st7{fill:#D8E3EA;}
	.st8{fill:#E29898;}
	.st9{fill:#FCD786;}
	.st10{fill:#FFE98A;}
	.st11{fill:#99C6DD;}
	.st12{fill:#B0D6EC;}
	.st13{opacity:0.4;}
	.st14{opacity:0.25;}
	.st15{opacity:0.2;fill:#FFFFFF;}
	.st16{opacity:4.000000e-02;}
</style><g><g><g><path class="st8" d="M57.9,31.4l-6,6c-0.1,0.1-0.3,0.2-0.5,0.2s-0.4-0.1-0.5-0.2l-0.7-0.7v2.2c0,0.2-0.1,0.4-0.2,0.5l-2.4,2.4     c0.6,1.1,0.5,2.4-0.4,3.4c-0.3,0.3-0.8,0.6-1.2,0.7c0.7,1.1,0.6,2.6-0.3,3.5c-0.5,0.5-1.3,0.8-2,0.8c-0.5,0-1.1-0.2-1.5-0.5     c-0.1,0.4-0.4,0.9-0.7,1.2c-0.5,0.5-1.3,0.8-2,0.8c-0.3,0-0.6,0-0.8-0.1c-0.1,0.6-0.3,1.1-0.8,1.5c-0.5,0.5-1.2,0.8-2,0.8     c-0.3,0-0.6,0-0.9-0.2c-0.1,0-0.2-0.1-0.2-0.1c-0.2-0.1-0.3-0.2-0.4-0.3c-0.1-0.1-0.3-0.2-0.4-0.3l-1.1-1.1     c-0.2-0.2-0.3-0.4-0.5-0.6L31.5,52c-0.5,0.5-1.2,0.8-2,0.8c-0.7,0-1.4-0.3-2-0.8c-0.3-0.3-0.6-0.8-0.7-1.2     c-0.5,0.3-1,0.5-1.5,0.5c-0.7,0-1.4-0.3-2-0.8c-0.5-0.5-0.8-1.2-0.8-2c0-0.6,0.2-1.1,0.5-1.6c-0.4-0.1-0.9-0.4-1.2-0.7     c-0.5-0.5-0.8-1.2-0.8-2c0-0.8,0.3-1.4,0.8-2l0.6-0.6l-1.7-1.7c-0.1-0.1-0.2-0.3-0.2-0.5v-2.2l-0.7,0.7c-0.2,0.2-0.3,0.2-0.5,0.2     s-0.4-0.1-0.5-0.2l-6-6c-0.1-0.1-0.2-0.3-0.2-0.5c0-0.2,0.1-0.4,0.2-0.5l11.5-11.5c0.3-0.3,0.8-0.3,1.1,0l6,6     c0.3,0.3,0.3,0.8,0,1.1l-0.7,0.7h2.2c0.2,0,0.4,0.1,0.5,0.2l1.7,1.7l0.6-0.6l1.7-1.7c0.1-0.1,0.3-0.2,0.5-0.2h2.2l-0.7-0.7     c-0.2-0.1-0.2-0.3-0.2-0.5s0.1-0.4,0.2-0.5l6-6c0.3-0.3,0.8-0.3,1.1,0l11.5,11.5C58.2,30.6,58.2,31.1,57.9,31.4z"/></g><g><g><ellipse class="st2" cx="51.5" cy="31.7" rx="1.5" ry="1.5" transform="matrix(0.7071 -0.7071 0.7071 0.7071 -7.3145 45.6614)"/><path class="st6" d="M57.9,31.4c0.3-0.3,0.3-0.8,0-1.1L46.4,18.9c-0.3-0.3-0.8-0.3-1.1,0l-6,6c-0.1,0.1-0.2,0.3-0.2,0.5      s0.1,0.4,0.2,0.5l0.7,0.7h-2.2c-0.2,0-0.4,0.1-0.5,0.2L35,29.1l-1.7-1.7c-0.1-0.1-0.3-0.2-0.5-0.2h-2.2l0.7-0.7      c0.3-0.3,0.3-0.8,0-1.1l-6-6c-0.3-0.3-0.8-0.3-1.1,0L12.8,30.9c-0.1,0.1-0.2,0.3-0.2,0.5s0.1,0.4,0.2,0.5l6,6      c0.1,0.1,0.3,0.2,0.5,0.2s0.4-0.1,0.5-0.2l0.7-0.7v2.2c0,0.2,0.1,0.4,0.2,0.5l1.7,1.7l-0.6,0.6c-0.5,0.5-0.8,1.2-0.8,2      s0.3,1.4,0.8,2c0.3,0.3,0.7,0.6,1.2,0.7c-0.3,0.5-0.5,1-0.5,1.6c0,0.7,0.3,1.4,0.8,2c0.5,0.5,1.2,0.8,2,0.8      c0.6,0,1.1-0.2,1.6-0.5c0.1,0.4,0.3,0.8,0.7,1.2c0.5,0.5,1.2,0.8,2,0.8s1.4-0.3,2-0.8l0.7-0.7c0.1,0.2,0.3,0.4,0.5,0.6l1.1,1.1      c0.5,0.5,1.2,0.8,2,0.8c0.7,0,1.4-0.3,2-0.8c0.4-0.4,0.7-1,0.8-1.5c0.3,0.1,0.5,0.1,0.8,0.1c0.7,0,1.4-0.3,2-0.8      c0.3-0.3,0.6-0.7,0.7-1.2c0.5,0.3,1,0.5,1.6,0.5c0.7,0,1.4-0.3,2-0.8c1-1,1.1-2.4,0.3-3.5c0.4-0.1,0.8-0.3,1.2-0.7      c0.9-0.9,1-2.3,0.4-3.4l2.4-2.4c0.1-0.1,0.2-0.3,0.2-0.5v-2.2l0.7,0.7c0.1,0.1,0.3,0.2,0.5,0.2s0.4-0.1,0.5-0.2L57.9,31.4z       M44.2,44l-1.8-1.8c-0.5-0.5-0.5-1.3,0-1.8c0.5-0.5,1.3-0.5,1.8,0l1.8,1.8l0,0c0,0,0,0,0,0l0,0c0.5,0.5,0.5,1.3,0,1.8      C45.5,44.5,44.7,44.5,44.2,44z M41.3,46.9l-1.8-1.8c-0.5-0.5-0.5-1.3,0-1.8c0.2-0.2,0.6-0.4,0.9-0.4h0c0.3,0,0.7,0.1,0.9,0.4      l1.8,1.8c0,0,0,0,0,0l1.3,1.3c0.5,0.5,0.5,1.3,0,1.8c-0.5,0.5-1.3,0.5-1.8,0L41.3,46.9C41.3,46.9,41.3,46.9,41.3,46.9z       M37.8,49.1L36.7,48c-0.5-0.5-0.5-1.3,0-1.8c0.2-0.2,0.6-0.4,0.9-0.4c0.3,0,0.7,0.1,0.9,0.4l1.8,1.8c0.2,0.2,0.4,0.6,0.4,0.9      c0,0.3-0.1,0.7-0.4,0.9c-0.5,0.5-1.3,0.5-1.8,0L37.8,49.1z M33.8,49c0.2-0.2,0.6-0.4,0.9-0.4c0.3,0,0.7,0.1,0.9,0.4l1.1,1.1      c0.5,0.5,0.5,1.3,0,1.8c-0.5,0.5-1.3,0.5-1.8,0l-1.1-1.1C33.3,50.3,33.3,49.5,33.8,49z M29.7,25.9l-1.5,1.5c0,0,0,0,0,0      l-3.7,3.7c0,0,0,0,0,0l-5.2,5.2l-4.9-4.9L24.8,21L29.7,25.9z M41.6,28.1l7,7v3.4l-2.1,2.1l-1.3-1.3c-1.1-1.1-2.8-1.1-3.9,0      c-0.6,0.6-0.8,1.3-0.8,2.1c-0.8,0-1.5,0.2-2.1,0.8c-0.6,0.6-0.8,1.3-0.8,2.1c-0.7,0-1.5,0.2-2.1,0.8c-0.6,0.6-0.8,1.3-0.8,2.1      c-0.7,0-1.5,0.2-2.1,0.8c-0.4,0.4-0.7,0.9-0.8,1.5l-1.5,1.5c-0.5,0.5-1.3,0.5-1.8,0c-0.5-0.5-0.5-1.3,0-1.8l6.6-6.6      c0.3-0.3,0.3-0.8,0-1.1s-0.8-0.3-1.1,0l-8,8c-0.5,0.5-1.3,0.5-1.8,0c-0.2-0.2-0.4-0.6-0.4-0.9s0.1-0.7,0.4-0.9l8-8      c0.3-0.3,0.3-0.8,0-1.1s-0.8-0.3-1.1,0l-6.6,6.6c-0.5,0.5-1.3,0.5-1.8,0c-0.2-0.2-0.4-0.6-0.4-0.9s0.1-0.7,0.4-0.9l6.1-6.1      c0.3-0.3,0.3-0.8,0-1.1s-0.8-0.3-1.1,0l-4.4,4.4l-1.5-1.5v-3.4l7-7l3.4,0l2,2c0,0,0,0,0,0l4.6,4.6c-1.7,1.1-2.6,0.7-3.4,0.2      c-1.1-0.7-2.4-1.2-3.6-1.2c-1.1,0-2.2-0.9-2.6-1.3c-0.3-0.3-0.8-0.3-1.1,0c-0.3,0.3-0.3,0.8,0,1.1c0.1,0.1,1.8,1.6,3.6,1.7      c1,0,1.9,0.4,2.9,1c0.6,0.4,1.3,0.7,2.2,0.7c1,0,2.1-0.4,3.6-1.5c0.2-0.1,0.3-0.3,0.3-0.5c0-0.2-0.1-0.4-0.2-0.6l-4.7-4.7      l2.1-2.1H41.6z M56.3,30.8l-4.9,4.9L40.9,25.4l4.9-4.9L56.3,30.8z"/><ellipse class="st6" cx="25.6" cy="25.8" rx="1.5" ry="1.5" transform="matrix(0.7071 -0.7071 0.7071 0.7071 -10.7614 25.6734)"/></g></g><g class="st4"><g><path class="st2" d="M32,35.8c-1.8-0.1-3.5-1.6-3.6-1.7c-0.3-0.3-0.3-0.8,0-1.1c0.3-0.3,0.8-0.3,1.1,0c0.4,0.3,1.6,1.2,2.6,1.3      c1.2,0.1,2.4,0.5,3.6,1.2v1.7c-0.3-0.1-0.5-0.3-0.8-0.4C34,36.2,33,35.8,32,35.8z"/></g><path class="st2" d="M12.6,31.4c0,0.2,0.1,0.4,0.2,0.5l6,6c0.1,0.1,0.3,0.2,0.5,0.2s0.4-0.1,0.5-0.2l0.7-0.7v2.2     c0,0.2,0.1,0.4,0.2,0.5l1.7,1.7l-0.6,0.6c-0.5,0.5-0.8,1.2-0.8,2s0.3,1.4,0.8,2c0.3,0.3,0.7,0.6,1.2,0.7c-0.3,0.5-0.5,1-0.5,1.6     c0,0.7,0.3,1.4,0.8,2c0.5,0.5,1.2,0.8,2,0.8c0.6,0,1.1-0.2,1.6-0.5c0.1,0.4,0.3,0.8,0.7,1.2c0.5,0.5,1.2,0.8,2,0.8s1.4-0.3,2-0.8     l0.7-0.7c0.1,0.2,0.3,0.4,0.5,0.6l1.1,1.1c0.5,0.5,1.1,0.8,1.8,0.8v-1.5c-0.3,0-0.5-0.1-0.7-0.3l-1.1-1.1c-0.5-0.5-0.5-1.3,0-1.8     c0.2-0.2,0.6-0.4,0.9-0.4c0.3,0,0.7,0.1,0.9,0.4l0.1,0.1V45c0,0,0,0-0.1,0.1c-0.6,0.6-0.8,1.3-0.8,2.1c-0.7,0-1.5,0.2-2.1,0.8     c-0.4,0.4-0.7,0.9-0.8,1.5l-1.5,1.5c-0.5,0.5-1.3,0.5-1.8,0c-0.5-0.5-0.5-1.3,0-1.8l6.6-6.6c0.3-0.3,0.3-0.8,0-1.1     s-0.8-0.3-1.1,0l-8,8c-0.5,0.5-1.3,0.5-1.8,0c-0.2-0.2-0.4-0.6-0.4-0.9s0.1-0.7,0.4-0.9l8-8c0.3-0.3,0.3-0.8,0-1.1     s-0.8-0.3-1.1,0l-6.6,6.6c-0.5,0.5-1.3,0.5-1.8,0c-0.2-0.2-0.4-0.6-0.4-0.9s0.1-0.7,0.4-0.9l6.1-6.1c0.3-0.3,0.3-0.8,0-1.1     s-0.8-0.3-1.1,0l-4.4,4.4l-1.5-1.5v-3.4l7-7l3.4,0l2,2c0,0,0,0,0,0l1.1,1.1v-3.4L35,29.1l-1.7-1.7c-0.1-0.1-0.3-0.2-0.5-0.2h-2.2     l0.7-0.7c0.3-0.3,0.3-0.8,0-1.1l-6-6c-0.3-0.3-0.8-0.3-1.1,0L12.8,30.9C12.7,31,12.6,31.2,12.6,31.4z M14.4,31.4L24.8,21l4.9,4.9     l-1.5,1.5c0,0,0,0,0,0l-3.7,3.7c0,0,0,0,0,0l-5.2,5.2L14.4,31.4z"/></g></g><ellipse class="st2" cx="25.6" cy="25.8" rx="1.5" ry="1.5" transform="matrix(0.7071 -0.7071 0.7071 0.7071 -10.7614 25.6734)"/></g></svg>