<?xml version="1.0" ?><svg id="Layer_1" style="enable-background:new 0 0 70 70;" version="1.1" viewBox="0 0 70 70" xml:space="preserve" xmlns="http://www.w3.org/2000/svg" xmlns:xlink="http://www.w3.org/1999/xlink"><style type="text/css">
	.st0{fill:#A5CEB9;}
	.st1{opacity:0.3;}
	.st2{fill:#FFFFFF;}
	.st3{fill:#F2F6F7;}
	.st4{opacity:0.2;}
	.st5{fill:#B2DDC9;}
	.st6{fill:#EAAAA8;}
	.st7{fill:#D8E3EA;}
	.st8{fill:#E29898;}
	.st9{fill:#FCD786;}
	.st10{fill:#FFE98A;}
	.st11{fill:#99C6DD;}
	.st12{fill:#B0D6EC;}
	.st13{opacity:0.4;}
	.st14{opacity:0.25;}
	.st15{opacity:0.2;fill:#FFFFFF;}
	.st16{opacity:4.000000e-02;}
</style><g><g><g><g><path class="st9" d="M43.3,46.9c0.7,0.7,0.7,1.9,0,2.6c-3.3,3.3-7.6,5.1-12.2,5.1c-9.5,0-17.3-7.8-17.3-17.3      c0-9.5,7.8-17.3,17.3-17.3c1,0,1.8,0.8,1.8,1.8v14.7L43.3,46.9z"/><path class="st9" d="M35.6,30.9V15.4c0-1,0.8-1.8,1.9-1.8c4.6,0,9,1.8,12.2,5.1c0.7,0.7,0.7,1.9,0,2.6L38.8,32.2      c-0.4,0.4-0.8,0.5-1.3,0.5c-0.2,0-0.5,0-0.7-0.1C36.1,32.3,35.6,31.6,35.6,30.9z"/><path class="st9" d="M58.2,37.3c0,4.6-1.8,9-5.1,12.2c-0.3,0.3-0.8,0.5-1.3,0.5s-1-0.2-1.3-0.5L39.6,38.6      c-0.7-0.7-0.7-1.9,0-2.6l10.9-10.9c0.3-0.4,0.8-0.5,1.3-0.5s1,0.2,1.3,0.5C56.4,28.4,58.2,32.7,58.2,37.3z"/></g><g><path class="st10" d="M37.5,32.7c0.5,0,1-0.2,1.3-0.5l10.9-10.9c0.7-0.7,0.7-1.9,0-2.6c-3.3-3.3-7.6-5.1-12.2-5.1      c-1,0-1.9,0.8-1.9,1.9v15.5c0,0.7,0.5,1.4,1.1,1.7C37,32.7,37.2,32.7,37.5,32.7z M39.3,17.4c2.3,0.3,4.5,1.2,6.4,2.6l-6.4,6.4      V17.4z"/><path class="st10" d="M51.8,24.6c-0.5,0-1,0.2-1.3,0.5L39.6,36c-0.7,0.7-0.7,1.9,0,2.6l10.9,10.9c0.3,0.3,0.8,0.5,1.3,0.5      c0.5,0,1-0.2,1.3-0.5c3.3-3.3,5.1-7.6,5.1-12.2s-1.8-9-5.1-12.2C52.8,24.7,52.3,24.6,51.8,24.6z M51.7,45.6l-8.2-8.2l8.2-8.2      c1.8,2.4,2.8,5.2,2.8,8.2C54.5,40.3,53.5,43.2,51.7,45.6z"/><path class="st10" d="M32.9,36.6V21.9c0-1-0.8-1.9-1.9-1.9c-9.5,0-17.3,7.8-17.3,17.3s7.8,17.3,17.3,17.3c4.6,0,9-1.8,12.2-5.1      c0.7-0.7,0.7-1.9,0-2.6L32.9,36.6z M31.1,50.9c-7.5,0-13.6-6.1-13.6-13.6c0-6.9,5.1-12.6,11.8-13.5v13.5c0,0.5,0.2,1,0.5,1.3      l9.5,9.5C36.9,50,34.1,50.9,31.1,50.9z"/></g></g><g class="st4"><g><path class="st2" d="M35.3,38.9l-2.4-2.4V21.9c0-1-0.8-1.8-1.8-1.8c-9.5,0-17.3,7.8-17.3,17.3c0,9.5,7.8,17.3,17.3,17.3      c1.4,0,2.9-0.2,4.2-0.5V38.9z"/></g><g><path class="st2" d="M35.3,50.3c-1.4,0.4-2.8,0.7-4.2,0.7c-7.5,0-13.6-6.1-13.6-13.6c0-6.9,5.1-12.6,11.8-13.5v13.5      c0,0.5,0.2,1,0.5,1.3l5.5,5.5V39l-2.4-2.4V21.9c0-1-0.8-1.9-1.9-1.9c-9.5,0-17.3,7.8-17.3,17.3c0,9.5,7.8,17.3,17.3,17.3      c1.5,0,2.9-0.2,4.2-0.5V50.3z"/></g></g></g></g></svg>